<?xml version="1.0" encoding="iso-8859-1"?>
<!-- Generator: Adobe Illustrator 19.0.0, SVG Export Plug-In . SVG Version: 6.00 Build 0)  -->
<svg version="1.1" id="Capa_1" xmlns="http://www.w3.org/2000/svg" xmlns:xlink="http://www.w3.org/1999/xlink" x="0px" y="0px"
	 viewBox="0 0 512 512" style="enable-background:new 0 0 512 512;" xml:space="preserve">
<g>
	<g>
		<path d="M438.923,188.806c-4.056-25.714-16.574-49.323-35.841-67.267c-21.716-20.225-50.028-31.363-79.72-31.363
			s-58.003,11.139-79.72,31.363c-5.497,5.12-10.442,10.703-14.8,16.662l-6.113-50.055C216.592,37.895,173.789,0,123.164,0
			C72.54,0,29.736,37.895,23.6,88.146L5.134,239.348c-4.125,33.775,6.445,67.757,29,93.233c19.211,21.7,45.602,35.509,74.03,39.129
			V512h30V371.71c8.371-1.066,16.564-3.015,24.45-5.79c9.366,12.385,21.14,22.873,34.6,30.707
			c17.775,10.345,38.096,15.813,58.766,15.813c18.339,0,36.249-4.303,52.383-12.385V512h30V400.055
			c16.134,8.082,34.043,12.385,52.382,12.385c64.512,0,116.997-52.484,116.997-116.997
			C507.742,249.309,480.451,207.583,438.923,188.806z M138.165,341.385v-42.036h-0.001l53.618-28.192l-13.962-26.553l-39.656,20.851
			v-76.202l53.618-28.192l-13.962-26.553l-39.656,20.851v-43.832h-30v98.88l-39.655-20.851l-13.962,26.553l53.617,28.192v97.084
			c-19.804-3.394-38.061-13.433-51.568-28.69c-16.864-19.049-24.768-44.457-21.684-69.711L53.378,91.782
			C57.68,56.561,87.681,30,123.165,30c35.483,0,65.484,26.561,69.786,61.782l18.466,151.202
			c3.084,25.254-4.819,50.662-21.684,69.711C176.226,327.953,157.969,337.991,138.165,341.385z M390.745,382.44
			c-18.986,0-37.342-6.207-52.382-17.565v-72.098l53.617-28.192l-13.962-26.553l-39.655,20.851v-43.832h-30v98.261l-39.656-20.851
			l-13.962,26.553l53.618,28.192v17.669c-15.04,11.359-33.397,17.566-52.383,17.566c-25.449,0-49.596-11.349-65.984-30.346
			c8.11-5.509,15.583-12.04,22.2-19.513c22.554-25.477,33.125-59.458,29-93.233l-4.641-38.001l0.064-0.844
			c1.648-21.801,11.404-42.047,27.471-57.01c16.146-15.036,37.196-23.317,59.274-23.317c22.078,0,43.129,8.281,59.274,23.317
			c16.066,14.963,25.822,35.209,27.471,57.01l0.735,9.717l9.176,3.278c34.526,12.335,57.724,45.267,57.724,81.945
			C477.742,343.414,438.715,382.44,390.745,382.44z"/>
	</g>
</g>
<g>
</g>
<g>
</g>
<g>
</g>
<g>
</g>
<g>
</g>
<g>
</g>
<g>
</g>
<g>
</g>
<g>
</g>
<g>
</g>
<g>
</g>
<g>
</g>
<g>
</g>
<g>
</g>
<g>
</g>
</svg>
