<?xml version="1.0" encoding="iso-8859-1"?>
<!-- Generator: Adobe Illustrator 19.0.0, SVG Export Plug-In . SVG Version: 6.00 Build 0)  -->
<svg version="1.1" id="Capa_1" xmlns="http://www.w3.org/2000/svg" xmlns:xlink="http://www.w3.org/1999/xlink" x="0px" y="0px"
	 viewBox="0 0 511.999 511.999" style="enable-background:new 0 0 511.999 511.999;" xml:space="preserve">
<g>
	<g>
		<rect x="144.844" y="478.242" width="15.003" height="15.003"/>
	</g>
</g>
<g>
	<g>
		<path d="M151.925,364.254c-13.097-13.098-33.762-12.824-34.634-12.805l-7.196,0.149l-0.149,7.196
			c-0.018,0.873-0.292,21.537,12.805,34.634c12.314,12.314,31.316,12.808,34.271,12.808c0.188,0,0.311-0.002,0.363-0.003
			l7.196-0.149l0.149-7.196C164.748,398.015,165.022,377.351,151.925,364.254z M133.36,382.819
			c-4.391-4.391-6.49-10.518-7.495-15.446c4.933,1.007,11.071,3.108,15.452,7.489c4.39,4.39,6.49,10.515,7.494,15.445
			C143.877,389.301,137.741,387.2,133.36,382.819z"/>
	</g>
</g>
<g>
	<g>
		<path d="M302.115,248.818l-4.192-5.85l-6.019,3.946c-0.73,0.478-17.927,11.938-21.324,30.146
			c-3.396,18.209,8.518,35.096,9.025,35.806l4.192,5.85l6.019-3.946c0.73-0.479,17.929-11.939,21.323-30.147
			C314.535,266.415,302.623,249.527,302.115,248.818z M296.391,281.873c-1.138,6.103-5.002,11.299-8.5,14.915
			c-1.959-4.638-3.697-10.888-2.562-16.978c1.139-6.107,5.008-11.307,8.505-14.92C295.795,269.524,297.53,275.767,296.391,281.873z"
			/>
	</g>
</g>
<g>
	<g>
		<path d="M131.676,446.131l-0.405-7.186l-7.197,0.107c-0.804,0.012-19.818,0.436-31.458,12.936
			c-11.643,12.501-10.714,31.496-10.669,32.299l0.405,7.186l7.197-0.107c0.804-0.012,19.818-0.436,31.458-12.936
			C132.649,465.93,131.72,446.934,131.676,446.131z M110.028,468.205c-3.428,3.68-8.231,5.704-12.352,6.816
			c0.816-4.189,2.495-9.129,5.918-12.807c3.429-3.681,8.234-5.705,12.352-6.817C115.13,459.587,113.452,464.528,110.028,468.205z"/>
	</g>
</g>
<g>
	<g>
		<path d="M456.158,213.247l-0.148-7.196l-7.196-0.15c-0.859-0.018-21.536-0.293-34.635,12.805
			c-13.097,13.098-12.822,33.762-12.804,34.635l0.148,7.196l7.196,0.149c0.052,0.001,0.175,0.003,0.363,0.003
			c2.957,0,21.958-0.495,34.272-12.808C456.451,234.784,456.176,214.12,456.158,213.247z M432.745,237.271
			c-4.39,4.39-10.515,6.491-15.445,7.495c1.007-4.933,3.108-11.071,7.489-15.452c4.391-4.391,10.518-6.49,15.445-7.495
			C439.227,226.753,437.126,232.891,432.745,237.271z"/>
	</g>
</g>
<g>
	<g>
		<path d="M65.623,164.78l-3.703-6.171l-6.319,3.444c-0.767,0.418-18.839,10.441-23.703,28.315
			c-4.863,17.873,5.637,35.672,6.086,36.421l3.703,6.171l6.319-3.444c0.767-0.418,18.839-10.441,23.703-28.315
			C76.573,183.328,66.072,165.529,65.623,164.78z M57.233,197.262c-1.63,5.99-5.903,10.856-9.684,14.174
			c-1.576-4.782-2.801-11.152-1.173-17.13c1.63-5.991,5.906-10.857,9.683-14.175C57.635,184.913,58.86,191.284,57.233,197.262z"/>
	</g>
</g>
<g>
	<g>
		<path d="M282.47,74.701c-13.098-13.098-33.762-12.826-34.635-12.805l-7.196,0.149l-0.149,7.196
			c-0.018,0.873-0.292,21.537,12.805,34.635c12.314,12.314,31.317,12.807,34.272,12.807c0.188,0,0.312-0.002,0.363-0.003
			l7.196-0.149l0.148-7.196C295.293,108.462,295.567,87.798,282.47,74.701z M263.904,93.266c-4.392-4.391-6.492-10.519-7.496-15.446
			c4.934,1.007,11.072,3.108,15.452,7.489c4.391,4.39,6.491,10.515,7.495,15.445C274.421,99.748,268.284,97.646,263.904,93.266z"/>
	</g>
</g>
<g>
	<g>
		<path d="M190.251,123.225l-0.149-7.196l-7.196-0.149c-0.873-0.02-21.537-0.293-34.634,12.805
			c-13.098,13.098-12.823,33.762-12.805,34.635l0.148,7.195l7.196,0.149c0.052,0.001,0.175,0.003,0.363,0.003
			c2.957,0,21.958-0.495,34.272-12.808C190.543,144.762,190.269,124.098,190.251,123.225z M166.837,147.251
			c-4.39,4.39-10.516,6.49-15.446,7.495c1.007-4.933,3.108-11.071,7.489-15.452c4.391-4.391,10.518-6.491,15.446-7.495
			C173.318,136.732,171.218,142.87,166.837,147.251z"/>
	</g>
</g>
<g>
	<g>
		<path d="M179.536,225.836l-0.149-7.196l-7.196-0.149c-1.194-0.03-29.553-0.404-47.406,17.449
			c-17.852,17.852-17.474,46.208-17.449,47.406l0.149,7.196l7.196,0.149c0.072,0.001,0.243,0.004,0.504,0.004
			c4.072,0,30.125-0.676,46.902-17.453C179.939,255.39,179.561,227.034,179.536,225.836z M151.475,262.633
			c-8.359,8.359-20.578,11.37-28.536,12.452c1.083-7.957,4.094-20.176,12.453-28.536c4.185-4.185,9.336-7.029,14.436-8.961
			l-11.699,11.699l10.609,10.608l11.699-11.699C158.505,253.297,155.66,258.448,151.475,262.633z"/>
	</g>
</g>
<g>
	<g>
		<path d="M464.555,40.125l-0.148-7.196l-7.196-0.149c-1.904-0.041-47.036-0.645-75.258,27.576
			c-28.22,28.22-27.615,73.35-27.575,75.257l0.147,7.196l7.196,0.149c0.115,0.002,0.39,0.007,0.81,0.007
			c6.505,0,47.938-1.074,74.448-27.583C465.199,87.162,464.595,42.031,464.555,40.125z M426.369,104.773
			c-12.887,12.887-30.726,18.612-44.354,21.157l42.837-42.836l-10.609-10.608l-42.875,42.875
			c2.525-13.611,8.246-31.446,21.195-44.395c17.363-17.363,43.723-21.732,56.647-22.824
			C448.139,61.051,443.801,87.341,426.369,104.773z"/>
	</g>
</g>
<g>
	<g>
		<path d="M298.521,362.065c-23.227-23.228-60.287-22.733-61.847-22.701l-7.196,0.149l-0.149,7.196
			c-0.032,1.565-0.528,38.62,22.7,61.848c21.825,21.825,55.853,22.706,61.185,22.706c0.343,0,0.567-0.003,0.662-0.005l7.196-0.149
			l0.148-7.196C321.254,422.349,321.749,385.294,298.521,362.065z M289.004,412.612c-8.956-2.599-18.74-7.037-26.366-14.662
			c-12.988-12.989-16.768-32.444-17.864-43.158c10.698,1.076,30.09,4.833,43.138,17.882c9.782,9.781,14.338,23.226,16.462,33.85
			l-24.959-23.74l-10.34,10.87L289.004,412.612z"/>
	</g>
</g>
<g>
	<g>
		<path d="M510.542,354.311l-0.148-7.196l-7.196-0.149c-2.939-0.054-72.284-0.991-115.477,42.202
			c-43.193,43.193-42.263,112.546-42.201,115.477l0.148,7.196l7.196,0.149c0.179,0.003,0.602,0.01,1.252,0.01
			c10.028,0,73.663-1.65,114.225-42.213C511.534,426.594,510.604,357.241,510.542,354.311z M457.731,459.178
			c-30.794,30.795-78.574,36.528-96.982,37.58c1.053-18.407,6.786-66.186,37.581-96.982c25.322-25.323,62.115-33.694,84.63-36.456
			l-42.756,40.974l10.381,10.833l43.765-41.942C491.76,395.556,483.568,433.341,457.731,459.178z"/>
	</g>
</g>
<g>
	<g>
		<path d="M100.151,33.439C65.939-0.774,11.121-0.04,8.8,0.008l-7.196,0.15L1.455,7.354c-0.048,2.317-0.783,57.14,33.429,91.352
			c32.134,32.134,82.452,33.438,90.365,33.438c0.512,0,0.846-0.005,0.987-0.008l7.196-0.149l0.149-7.196
			C133.629,122.475,134.363,67.652,100.151,33.439z M107.385,115.69c-17.446-2.491-43.554-9.255-61.892-27.592
			C27.981,70.585,21.027,45.853,18.266,28.447L39.199,49.38l10.608-10.608L27.495,16.458c17.47,2.493,43.715,9.257,62.047,27.589
			c17.576,17.576,24.518,42.423,27.257,59.84L61.998,49.086L51.39,59.695L107.385,115.69z"/>
	</g>
</g>
<g>
	<g>
		
			<rect x="414.411" y="425.938" transform="matrix(0.7071 -0.7071 0.7071 0.7071 -182.9738 425.142)" width="14.587" height="15.003"/>
	</g>
</g>
<g>
	<g>
		<rect x="92.331" y="170.67" width="15.003" height="15.003"/>
	</g>
</g>
<g>
	<g>
		<rect x="19.184" y="114.407" width="15.003" height="15.003"/>
	</g>
</g>
<g>
	<g>
		<rect x="221.731" y="165.039" width="15.003" height="15.004"/>
	</g>
</g>
<g>
	<g>
		<rect x="71.697" y="313.203" width="15.003" height="15.003"/>
	</g>
</g>
<g>
	<g>
		<rect x="54.819" y="294.449" width="15.003" height="15.003"/>
	</g>
</g>
<g>
	<g>
		<rect x="167.349" y="442.603" width="15.003" height="15.003"/>
	</g>
</g>
<g>
	<g>
		<rect x="187.974" y="354.463" width="15.003" height="15.003"/>
	</g>
</g>
<g>
	<g>
		<rect x="323.005" y="228.804" width="15.003" height="15.003"/>
	</g>
</g>
<g>
	<g>
		<rect x="300.5" y="43.14" width="15.003" height="15.003"/>
	</g>
</g>
<g>
	<g>
		<rect x="204.858" y="82.52" width="15.003" height="15.003"/>
	</g>
</g>
<g>
	<g>
		<rect x="469.289" y="114.407" width="15.003" height="15.003"/>
	</g>
</g>
<g>
	<g>
		<rect x="450.535" y="135.032" width="15.003" height="15.003"/>
	</g>
</g>
<g>
	<g>
		<rect x="476.791" y="260.691" width="15.004" height="15.003"/>
	</g>
</g>
<g>
</g>
<g>
</g>
<g>
</g>
<g>
</g>
<g>
</g>
<g>
</g>
<g>
</g>
<g>
</g>
<g>
</g>
<g>
</g>
<g>
</g>
<g>
</g>
<g>
</g>
<g>
</g>
<g>
</g>
</svg>
